<?xml version="1.0" encoding="utf-8"?>
<!-- Generator: Adobe Illustrator 23.0.6, SVG Export Plug-In . SVG Version: 6.00 Build 0)  -->
<svg version="1.1" id="Layer_1" xmlns="http://www.w3.org/2000/svg" xmlns:xlink="http://www.w3.org/1999/xlink" x="0px" y="0px"
	 viewBox="0 0 431.28 431.28" style="enable-background:new 0 0 431.28 431.28;" xml:space="preserve">
<style type="text/css">
	.st0{fill:#000104;}
	.st1{fill:#FFFFFF;}
</style>
<g>
	<rect x="0.5" y="-17.5" class="st0" width="466" height="449"/>
	<path d="M466-17v448H1V-17H466 M467-18H0v450h467V-18L467-18z"/>
</g>
<rect x="36" y="108" class="st1" width="36" height="252"/>
<rect x="108" y="216" class="st1" width="36" height="36"/>
<rect x="108" y="180" class="st1" width="36" height="36"/>
<rect x="72" y="144" class="st1" width="36" height="36"/>
<rect x="274" y="144" class="st1" width="36" height="180"/>
<rect x="381" y="144" class="st1" width="36" height="180"/>
<rect x="310" y="324" class="st1" width="36" height="36"/>
<rect x="310" y="108" class="st1" width="36" height="36"/>
<rect x="180" y="108" class="st1" width="36" height="252"/>
<rect x="144" y="252" class="st1" width="36" height="36"/>
<rect x="346" y="324" class="st1" width="36" height="36"/>
<rect x="346" y="108" class="st1" width="36" height="36"/>
<rect x="144" y="288" class="st1" width="36" height="36"/>
<rect x="72" y="108" class="st1" width="36" height="36"/>
</svg>
