<?xml version="1.0" encoding="utf-8"?>
<!-- Generator: Adobe Illustrator 23.0.6, SVG Export Plug-In . SVG Version: 6.00 Build 0)  -->
<svg version="1.1" id="Layer_1" xmlns="http://www.w3.org/2000/svg" xmlns:xlink="http://www.w3.org/1999/xlink" x="0px" y="0px"
	 viewBox="0 0 431.28 431.28" style="enable-background:new 0 0 431.28 431.28;" xml:space="preserve">
<style type="text/css">
	.st0{fill:none;}
	.st1{fill:#FFFFFF;stroke:#000000;stroke-width:6;stroke-miterlimit:10;}
	.st2{font-family:'Arista';}
	.st3{font-size:231.1592px;}
</style>
<rect x="352.63" y="-201.31" class="st0" width="372.25" height="206.35"/>
<text transform="matrix(1 0 0 1 352.6333 -54.0645)" class="st1 st2 st3">yes</text>
<g>
	<rect x="341.19" y="-184.7" class="st0" width="372.25" height="206.35"/>
	<text transform="matrix(1 0 0 1 341.1868 -37.4489)" class="st1 st2 st3">yes</text>
</g>
<g>
	<rect x="327.44" y="-168.45" class="st0" width="372.25" height="206.35"/>
	<text transform="matrix(1 0 0 1 327.4368 -21.1989)" class="st1 st2 st3">yes</text>
</g>
<g>
	<rect x="317.44" y="-157.45" class="st0" width="372.25" height="206.35"/>
	<text transform="matrix(1 0 0 1 317.4368 -10.1989)" class="st1 st2 st3">yes</text>
</g>
<g>
	<rect x="306.44" y="-143.45" class="st0" width="372.25" height="206.35"/>
	<text transform="matrix(1 0 0 1 306.4368 3.8011)" class="st1 st2 st3">yes</text>
</g>
<g>
	<rect x="294.44" y="-129.45" class="st0" width="372.25" height="206.35"/>
	<text transform="matrix(1 0 0 1 294.4368 17.8011)" class="st1 st2 st3">yes</text>
</g>
<g>
	<rect x="276.44" y="-108.45" class="st0" width="372.25" height="206.35"/>
	<text transform="matrix(1 0 0 1 276.4368 38.8011)" class="st1 st2 st3">yes</text>
</g>
<rect x="262.54" y="-86.88" class="st0" width="372.25" height="206.35"/>
<text transform="matrix(1 0 0 1 262.5352 60.3684)" class="st1 st2 st3">yes</text>
<g>
	<rect x="251.09" y="-70.26" class="st0" width="372.25" height="206.35"/>
	<text transform="matrix(1 0 0 1 251.0886 76.984)" class="st1 st2 st3">yes</text>
</g>
<g>
	<rect x="237.34" y="-54.01" class="st0" width="372.25" height="206.35"/>
	<text transform="matrix(1 0 0 1 237.3386 93.2339)" class="st1 st2 st3">yes</text>
</g>
<g>
	<rect x="227.34" y="-43.01" class="st0" width="372.25" height="206.35"/>
	<text transform="matrix(1 0 0 1 227.3386 104.2339)" class="st1 st2 st3">yes</text>
</g>
<g>
	<rect x="216.34" y="-29.01" class="st0" width="372.25" height="206.35"/>
	<text transform="matrix(1 0 0 1 216.3386 118.2339)" class="st1 st2 st3">yes</text>
</g>
<g>
	<rect x="204.34" y="-15.01" class="st0" width="372.25" height="206.35"/>
	<text transform="matrix(1 0 0 1 204.3386 132.2339)" class="st1 st2 st3">yes</text>
</g>
<g>
	<rect x="186.34" y="5.99" class="st0" width="372.25" height="206.35"/>
	<text transform="matrix(1 0 0 1 186.3386 153.2339)" class="st1 st2 st3">yes</text>
</g>
<rect x="171.58" y="22.9" class="st0" width="372.25" height="206.35"/>
<text transform="matrix(1 0 0 1 171.584 170.152)" class="st1 st2 st3">yes</text>
<g>
	<rect x="160.14" y="39.52" class="st0" width="372.25" height="206.35"/>
	<text transform="matrix(1 0 0 1 160.1375 186.7676)" class="st1 st2 st3">yes</text>
</g>
<g>
	<rect x="146.39" y="55.77" class="st0" width="372.25" height="206.35"/>
	<text transform="matrix(1 0 0 1 146.3875 203.0175)" class="st1 st2 st3">yes</text>
</g>
<g>
	<rect x="136.39" y="66.77" class="st0" width="372.25" height="206.35"/>
	<text transform="matrix(1 0 0 1 136.3875 214.0175)" class="st1 st2 st3">yes</text>
</g>
<g>
	<rect x="125.39" y="80.77" class="st0" width="372.25" height="206.35"/>
	<text transform="matrix(1 0 0 1 125.3875 228.0175)" class="st1 st2 st3">yes</text>
</g>
<g>
	<rect x="113.39" y="94.77" class="st0" width="372.25" height="206.35"/>
	<text transform="matrix(1 0 0 1 113.3875 242.0175)" class="st1 st2 st3">yes</text>
</g>
<g>
	<rect x="95.39" y="115.77" class="st0" width="372.25" height="206.35"/>
	<text transform="matrix(1 0 0 1 95.3875 263.0175)" class="st1 st2 st3">yes</text>
</g>
<rect x="81.49" y="137.34" class="st0" width="372.25" height="206.35"/>
<text transform="matrix(1 0 0 1 81.4858 284.5848)" class="st1 st2 st3">yes</text>
<g>
	<rect x="70.04" y="153.95" class="st0" width="372.25" height="206.35"/>
	<text transform="matrix(1 0 0 1 70.0393 301.2004)" class="st1 st2 st3">yes</text>
</g>
<g>
	<rect x="56.29" y="170.2" class="st0" width="372.25" height="206.35"/>
	<text transform="matrix(1 0 0 1 56.2893 317.4503)" class="st1 st2 st3">yes</text>
</g>
<g>
	<rect x="46.29" y="181.2" class="st0" width="372.25" height="206.35"/>
	<text transform="matrix(1 0 0 1 46.2893 328.4503)" class="st1 st2 st3">yes</text>
</g>
<g>
	<rect x="35.29" y="195.2" class="st0" width="372.25" height="206.35"/>
	<text transform="matrix(1 0 0 1 35.2893 342.4503)" class="st1 st2 st3">yes</text>
</g>
<g>
	<rect x="23.29" y="209.2" class="st0" width="372.25" height="206.35"/>
	<text transform="matrix(1 0 0 1 23.2893 356.4503)" class="st1 st2 st3">yes</text>
</g>
<g>
	<rect x="9.29" y="230.2" class="st0" width="372.25" height="206.35"/>
	<text transform="matrix(1 0 0 1 9.2893 377.4503)" class="st1 st2 st3">yes</text>
</g>
</svg>
