<?xml version="1.0" encoding="utf-8"?>
<!-- Generator: Adobe Illustrator 23.0.6, SVG Export Plug-In . SVG Version: 6.00 Build 0)  -->
<svg version="1.1" id="Layer_1" xmlns="http://www.w3.org/2000/svg" xmlns:xlink="http://www.w3.org/1999/xlink" x="0px" y="0px"
	 viewBox="0 0 431.28 431.28" style="enable-background:new 0 0 431.28 431.28;" xml:space="preserve">
<style type="text/css">
	.st0{fill:none;stroke:#FFFFFF;stroke-width:2;stroke-miterlimit:10;}
	.st1{opacity:0.46;}
	.st2{fill:#FFFFFF;}
</style>
<rect x="-23" y="-4" width="494" height="447"/>
<g>
	<g>
		<path class="st0" d="M31.85,148.13v-8.68h60.77v8.68l-28.21,3.26h-4.34L31.85,148.13z M91.54,236.02l-47.53-96.58h22.57
			l39.5,85.51h-7.6l40.58-85.51h11.07l-46.66,96.58H91.54z M99.78,272.92l30.38,3.26v8.68H65.06v-8.68l30.38-3.26H99.78z
			 M87.85,219.75h19.53c0,24.74,0,45.79,0.65,65.11H87.2C87.85,265.97,87.85,244.71,87.85,219.75z M137.98,151.38l-24.09-3.26v-8.68
			h49.92v8.68l-21.7,3.26H137.98z"/>
		<path class="st0" d="M175.74,148.13v-8.68h30.38v11.94h-2.17L175.74,148.13z M206.13,272.92v11.94h-30.38v-8.68l28.21-3.26H206.13
			z M196.36,206.73c0-22.35,0-44.92-0.65-67.28h20.83c-0.65,21.92-0.65,44.49-0.65,67.28v8.25c0,24.96,0,47.53,0.65,69.88h-20.83
			c0.65-21.92,0.65-44.49,0.65-67.28V206.73z M266.24,139.45l9.77,10.85h-69.88v-10.85h77.48l1.52,38.63h-12.15L266.24,139.45z
			 M255.18,215.62h-49.05v-9.98h49.05V215.62z M289.47,246.22l-1.52,38.63h-81.82V274h74.22l-9.77,10.85l6.73-38.63H289.47z
			 M248.23,207.81l3.26-23h9.77v51.44h-9.77l-3.26-24.09V207.81z"/>
		<path class="st0" d="M381.49,250.78c0-14.11-8.46-20.4-27.34-27.78l-8.25-3.25c-22.14-8.68-37.33-21.27-37.33-43.41
			c0-24.96,21.05-40.15,48.61-40.15c14.54,0,26.04,4.56,35.38,11.5l-1.3,28.21h-13.02l-6.08-32.77l13.89,7.16v10.85
			c-10.63-10.42-18.66-14.11-30.17-14.11c-16.93,0-29.73,8.46-29.73,24.74c0,13.67,8.9,21.7,24.74,27.78l8.46,3.26
			c28.65,11.07,39.72,23.66,39.72,44.06c0,25.61-21.49,41.24-51.22,41.24c-16.28,0-32.12-5.21-42.1-11.5l1.3-30.38h13.02l5.64,33.42
			l-14.11-6.08v-10.42c13.46,9.77,20.83,14.11,35.59,14.11C367.81,277.26,381.49,267.71,381.49,250.78z"/>
	</g>
</g>
<g>
	<g class="st1">
		<path class="st2" d="M40.85,152.51v-8.68h60.77v8.68l-28.21,3.26h-4.34L40.85,152.51z M100.53,240.4l-47.53-96.58h22.57
			l39.5,85.51h-7.6l40.58-85.51h11.07l-46.66,96.58H100.53z M108.78,277.3l30.38,3.26v8.68H74.06v-8.68l30.38-3.26H108.78z
			 M96.84,224.13h19.53c0,24.74,0,45.79,0.65,65.11H96.19C96.84,270.35,96.84,249.09,96.84,224.13z M146.98,155.76l-24.09-3.26
			v-8.68h49.92v8.68l-21.7,3.26H146.98z"/>
		<path class="st2" d="M184.74,152.51v-8.68h30.38v11.94h-2.17L184.74,152.51z M215.13,277.3v11.94h-30.38v-8.68l28.21-3.26H215.13z
			 M205.36,211.11c0-22.35,0-44.92-0.65-67.28h20.83c-0.65,21.92-0.65,44.49-0.65,67.28v8.25c0,24.96,0,47.53,0.65,69.88h-20.83
			c0.65-21.92,0.65-44.49,0.65-67.28V211.11z M275.24,143.83l9.77,10.85h-69.88v-10.85h77.48l1.52,38.63h-12.15L275.24,143.83z
			 M264.17,220h-49.05v-9.98h49.05V220z M298.46,250.6l-1.52,38.63h-81.82v-10.85h74.22l-9.77,10.85l6.73-38.63H298.46z
			 M257.23,212.19l3.26-23h9.77v51.43h-9.77l-3.26-24.09V212.19z"/>
		<path class="st2" d="M390.48,255.16c0-14.11-8.46-20.4-27.34-27.78l-8.25-3.25c-22.14-8.68-37.33-21.27-37.33-43.41
			c0-24.96,21.05-40.15,48.61-40.15c14.54,0,26.04,4.56,35.38,11.5l-1.3,28.21h-13.02l-6.08-32.77l13.89,7.16v10.85
			c-10.63-10.42-18.66-14.11-30.17-14.11c-16.93,0-29.73,8.46-29.73,24.74c0,13.67,8.9,21.7,24.74,27.78l8.46,3.26
			c28.65,11.07,39.72,23.66,39.72,44.06c0,25.61-21.49,41.24-51.22,41.24c-16.28,0-32.12-5.21-42.1-11.5l1.3-30.38h13.02l5.64,33.42
			l-14.11-6.08v-10.42c13.46,9.77,20.83,14.11,35.59,14.11C376.81,281.64,390.48,272.09,390.48,255.16z"/>
	</g>
</g>
</svg>
