<?xml version="1.0" encoding="utf-8"?>
<!-- Generator: Adobe Illustrator 23.0.6, SVG Export Plug-In . SVG Version: 6.00 Build 0)  -->
<svg version="1.1" id="Layer_1" xmlns="http://www.w3.org/2000/svg" xmlns:xlink="http://www.w3.org/1999/xlink" x="0px" y="0px"
	 viewBox="0 0 431.28 431.28" style="enable-background:new 0 0 431.28 431.28;" xml:space="preserve">
<style type="text/css">
	.st0{opacity:0.61;fill:none;stroke:#000000;stroke-width:0.5;stroke-miterlimit:10;}
	.st1{fill:none;}
	.st2{stroke:#000000;stroke-width:3;stroke-miterlimit:10;}
	.st3{font-family:'Silom';}
	.st4{font-size:169.5232px;}
</style>
<line class="st0" x1="37.5" y1="-0.5" x2="36.5" y2="431.5"/>
<line class="st0" x1="72.5" y1="-0.5" x2="72.5" y2="431.5"/>
<line class="st0" x1="108.5" y1="-0.5" x2="108.5" y2="431.5"/>
<line class="st0" x1="144.5" y1="-0.5" x2="143.5" y2="431.5"/>
<line class="st0" x1="178.5" y1="-0.5" x2="179.5" y2="431.5"/>
<line class="st0" x1="217.5" y1="0" x2="216.5" y2="432"/>
<line class="st0" x1="252.5" y1="0" x2="252.5" y2="432"/>
<line class="st0" x1="288.5" y1="0" x2="288.5" y2="432"/>
<line class="st0" x1="324.5" y1="0" x2="323.5" y2="432"/>
<line class="st0" x1="358.5" y1="0" x2="359.5" y2="432"/>
<line class="st0" x1="395.5" y1="0" x2="396.5" y2="432"/>
<line class="st0" x1="432.83" y1="36.67" x2="0.83" y2="35.67"/>
<line class="st0" x1="432.83" y1="71.67" x2="0.83" y2="71.67"/>
<line class="st0" x1="432.83" y1="107.67" x2="0.83" y2="107.67"/>
<line class="st0" x1="432.83" y1="143.67" x2="0.83" y2="142.67"/>
<line class="st0" x1="432.83" y1="177.67" x2="0.83" y2="178.67"/>
<line class="st0" x1="432.33" y1="216.67" x2="0.33" y2="215.67"/>
<line class="st0" x1="432.33" y1="251.67" x2="0.33" y2="251.67"/>
<line class="st0" x1="432.33" y1="287.67" x2="0.33" y2="287.67"/>
<line class="st0" x1="432.33" y1="323.67" x2="0.33" y2="322.67"/>
<line class="st0" x1="432.33" y1="357.67" x2="0.33" y2="358.67"/>
<line class="st0" x1="432.33" y1="394.67" x2="0.33" y2="395.67"/>
<rect x="24.82" y="151.43" class="st1" width="463.82" height="167.1"/>
<text transform="matrix(0.975 0 0 1 24.8245 278.5728)" class="st2 st3 st4">yes!</text>
</svg>
